# xmcd CD database file
#
# Track frame offsets:
#	150
#	16709
#	23351
#	39513
#	56640
#	75707
#	102993
#	111767
#	136941
#	148721
#	158418
#	169635
#	183734
#	199643
#	208956
#	216507
#	228020
#
# Disc length: 3173 seconds
#
# Revision: 0
# Processed by: cddbd v1.5.2PL0 Copyright (c) Steve Scherf et al.
# Submitted via: CDex 1.70beta2
#
DISCID=de0c6311
DTITLE=Uli Geissendoerfer - Transformation 9-11
DYEAR=2005
DGENRE=Jazz
TTITLE0=The Beginning
TTITLE1=Interlude (altered piano)
TTITLE2=Hand in Hand
TTITLE3=Whereto did they leave us?
TTITLE4=Maybe there's hope
TTITLE5=Nobody knows the trouble I've seen
TTITLE6=Baroque interlude (altered piano)
TTITLE7=Steel song
TTITLE8=Hope - despair
TTITLE9=Day 3
TTITLE10=Interlude II (altered piano)
TTITLE11=Inferno I and II
TTITLE12=The next day
TTITLE13=Structural damage
TTITLE14=I want them back
TTITLE15=I call for thee (altered piano)
TTITLE16=Hand in Hand (prologue)
EXTD=YEAR: 2005
EXTT0=
EXTT1=
EXTT2=
EXTT3=
EXTT4=
EXTT5=
EXTT6=
EXTT7=
EXTT8=
EXTT9=
EXTT10=
EXTT11=
EXTT12=
EXTT13=
EXTT14=
EXTT15=
EXTT16=
PLAYORDER=
